<?xml version="1.0" encoding="utf-8"?>
<!-- Generated by IcoMoon.io -->
<!DOCTYPE svg PUBLIC "-//W3C//DTD SVG 1.1//EN" "http://www.w3.org/Graphics/SVG/1.1/DTD/svg11.dtd">
<svg version="1.1" xmlns="http://www.w3.org/2000/svg" xmlns:xlink="http://www.w3.org/1999/xlink" width="367" height="50" viewBox="0 0 367 126">
<path d="M63.204 75.591c-10.87 15.644-24.527 23.211-24.527 23.211-55.753-35.393-33.142-93.255-33.142-93.255 34.196-10.031 65.866-0.501 65.866-0.501 5.329 15.988 5.936 29.848 3.85 41.646h-10.058l-8.1-24.445-7.931 24.131h-25.819l20.587 15.526-7.931 23.964 21.094-14.851 6.111 4.574z" fill="rgb(226, 167, 44)"></path>
<path d="M9.673 43.059l3.311-10.189-8.664-6.3h10.711l3.307-10.182 3.311 10.182h10.708l-8.663 6.3 3.308 10.189-8.664-6.299-8.665 6.299z" fill="rgb(255, 255, 255)"></path>
<path d="M35.79 24.085l2.44-7.506-6.387-4.64h7.896l2.438-7.503 2.437 7.503h7.887l-6.381 4.64 2.44 7.506-6.383-4.64-6.387 4.64z" fill="rgb(255, 255, 255)"></path>
</svg>
