<?xml version="1.0" encoding="utf-8"?>
<!-- Generated by IcoMoon.io -->
<!DOCTYPE svg PUBLIC "-//W3C//DTD SVG 1.1//EN" "http://www.w3.org/Graphics/SVG/1.1/DTD/svg11.dtd">
<svg version="1.1" xmlns="http://www.w3.org/2000/svg" xmlns:xlink="http://www.w3.org/1999/xlink" width="250" height="85" viewBox="0 0 367 126">
<path d="M63.204 75.591c-10.87 15.644-24.527 23.211-24.527 23.211-55.753-35.393-33.142-93.255-33.142-93.255 34.196-10.031 65.866-0.501 65.866-0.501 5.329 15.988 5.936 29.848 3.85 41.646h-10.058l-8.1-24.445-7.931 24.131h-25.819l20.587 15.526-7.931 23.964 21.094-14.851 6.111 4.574z" fill="rgb(226, 167, 44)"></path>
<path d="M9.673 43.059l3.311-10.189-8.664-6.3h10.711l3.307-10.182 3.311 10.182h10.708l-8.663 6.3 3.308 10.189-8.664-6.299-8.665 6.299z" fill="rgb(255, 255, 255)"></path>
<path d="M35.79 24.085l2.44-7.506-6.387-4.64h7.896l2.438-7.503 2.437 7.503h7.887l-6.381 4.64 2.44 7.506-6.383-4.64-6.387 4.64z" fill="rgb(255, 255, 255)"></path>
<path d="M267.657 59.422c0-5.401-3-9.901-9.523-9.901h-6.602v19.802h6.602c6.523 0 9.523-4.425 9.523-9.901v0zM268.335 80.649c4.424 5.25 9.447 9 13.951 9.524v1.576h-12.379l-14.849-19.726h-3.526v9.376c0 7.5 0.901 8.774 7.125 8.774v1.576h-20.25v-1.576c6.227 0 7.125-1.274 7.125-8.774v-24.378c0-7.5-0.898-8.699-7.125-8.699v-1.575h19.799c10.428 0 16.129 5.7 16.129 12.675 0 6.526-4.875 11.7-13.352 12.601l7.352 8.626z" fill="rgb(255, 255, 255)"></path>
<path d="M91.39 81.321c0 7.5 0.974 8.774 7.2 8.774v1.576h-17.101v-1.576c6.226 0 7.125-1.274 7.125-8.774v-24.379c0-7.5-0.899-8.699-7.125-8.699v-1.575h12.75l15.901 36.528 15.826-36.528h11.776v1.575c-6.3 0-7.2 1.199-7.2 8.699v24.379c0 7.5 0.9 8.774 7.2 8.774v1.576h-20.251v-1.576c6.225 0 7.126-1.274 7.126-8.774v-24.452l-15.602 36.077h-0.974l-16.651-38.328v26.703z" fill="rgb(255, 255, 255)"></path>
<path d="M173.708 48.244v-1.576h17.551v1.576c-6.226 0-7.199 1.2-7.199 8.701v18c0 11.777-8.102 18.001-18.077 18.001-9.901 0-18.002-6.224-18.002-18.001v-18c0-7.501-0.899-8.701-7.125-8.701v-1.576h20.252v1.576c-6.226 0-7.127 1.2-7.127 8.701v18.375c0 9.751 5.625 14.251 13.127 14.251 7.875 0 13.8-4.5 13.8-14.251v-18.375c0-7.501-0.975-8.701-7.2-8.701z" fill="rgb(255, 255, 255)"></path>
<path d="M223.734 59.345c0-5.4-3-9.901-9.526-9.901h-6.6v19.801h6.6c6.526 0 9.526-4.425 9.526-9.9v0zM236.78 91.671h-10.796l-14.85-19.726h-3.526v9.376c0 7.5 0.901 8.776 7.126 8.776v1.574h-20.251v-1.574c6.225 0 7.125-1.276 7.125-8.776v-24.376c0-7.501-0.9-8.701-7.125-8.701v-1.576h19.8c10.427 0 16.126 5.701 16.126 12.677 0 6.524-4.875 11.701-13.349 12.6l7.349 8.626c3.914 4.643 8.295 8.112 12.369 9.217l0.002 1.883z" fill="rgb(255, 255, 255)"></path>
<path d="M343.352 81.321c0 7.5 0.899 8.776 7.125 8.776v1.574h-20.252v-1.574c6.226 0 7.125-1.276 7.125-8.776v-7.275l-12.45-19.277c-3.225-4.95-5.55-6.525-10.877-6.525v-1.576h21.377v1.576c-6.3 0-6.3 2.25-4.050 5.701l10.8 16.5 10.952-16.5c2.625-4.051 2.25-5.701-4.051-5.701v-1.576h17.553v1.576c-6.301 0-7.877 2.101-10.877 6.525l-12.375 18.752v7.8z" fill="rgb(255, 255, 255)"></path>
<path d="M300.533 55.298l-7.8 18.074h15.676l-7.876-18.074zM287.933 84.474c-1.801 4.050-0.375 5.701 5.85 5.701v1.576h-17.55v-1.576c6.299 0 6.674-1.276 9-6.526l16.5-38.177h0.975l16.576 38.177c2.325 5.25 2.7 6.526 8.926 6.526v1.576h-20.775v-1.576c6.224 0 7.648-1.576 5.849-5.701l-3.599-8.325h-18.153l-3.599 8.325z" fill="rgb(255, 255, 255)"></path>
<path d="M94.547 125.887c-2.395 0-4.447-0.542-6.186-1.369l0.571-3.449c1.653 0.969 3.705 1.739 5.672 1.739 1.739 0 2.936-0.827 2.936-2.394 0-1.454-0.685-2.053-3.535-3.278-3.82-1.568-5.359-2.823-5.359-5.872 0-3.478 2.68-5.501 6.357-5.501 2.223 0 3.762 0.456 5.187 1.197l-0.569 3.421c-1.426-0.942-3.107-1.54-4.646-1.54-1.882 0-2.708 0.912-2.708 2.109 0 1.255 0.627 1.853 3.363 2.993 4.047 1.654 5.53 3.050 5.53 6.1 0 3.848-2.822 5.844-6.613 5.844z" fill="rgb(231, 174, 38)"></path>
<path d="M113.758 109.268v16.39h-3.791v-16.39h-5.843v-3.277h15.278l0.541 3.277h-6.185z" fill="rgb(231, 174, 38)"></path>
<path d="M129.173 110.010l-2.679 7.582h5.359l-2.68-7.582zM134.788 125.857l-1.881-5.187h-7.439l-1.796 4.988h-3.734l7.382-19.753h4.019l7.212 19.269-3.763 0.683z" fill="rgb(231, 174, 38)"></path>
<path d="M148.527 109.268v16.39h-3.791v-16.39h-5.843v-3.277h15.277l0.542 3.277h-6.185z" fill="rgb(231, 174, 38)"></path>
<path d="M158.757 125.658v-19.667h11.43v3.193h-7.696v4.617h5.929l0.513 3.249h-6.442v5.416h7.981v3.192h-11.715z" fill="rgb(231, 174, 38)"></path>
<path d="M190.021 126c-4.759 0-7.866-2.821-7.866-7.952v-12.057h3.762v11.858c0 2.992 1.368 4.874 4.133 4.874 2.793 0 4.19-1.768 4.19-4.789v-11.943h3.791v11.971c0 5.217-3.249 8.038-8.010 8.038z" fill="rgb(231, 174, 38)"></path>
<path d="M216.1 125.658l-9.264-13.539v13.539h-3.506v-19.667h3.563l8.836 12.883v-12.883h3.505v19.667h-3.134z" fill="rgb(231, 174, 38)"></path>
<path d="M224.904 105.991h3.791v19.667h-3.791v-19.667z" fill="rgb(231, 174, 38)"></path>
<path d="M243.8 125.744h-3.705l-7.241-19.268 3.991-0.685 5.245 15.078 5.159-14.878h3.933l-7.382 19.753z" fill="rgb(231, 174, 38)"></path>
<path d="M255.228 125.658v-19.667h11.429v3.193h-7.696v4.617h5.929l0.513 3.249h-6.442v5.416h7.981v3.192h-11.714z" fill="rgb(231, 174, 38)"></path>
<path d="M277.173 109.012h-2.081v6.243h1.91c2.337 0 3.791-1.112 3.791-3.164 0-1.967-1.254-3.079-3.62-3.079v0zM285.81 125.145l-3.849 0.712-5.13-7.724h-1.711v7.525h-3.762v-19.667h6.1c4.39 0 7.040 2.080 7.040 5.9 0 2.85-1.511 4.646-3.934 5.53l5.246 7.724z" fill="rgb(231, 174, 38)"></path>
<path d="M294.985 125.887c-2.394 0-4.446-0.542-6.185-1.369l0.57-3.449c1.653 0.969 3.705 1.739 5.672 1.739 1.739 0 2.937-0.827 2.937-2.394 0-1.454-0.685-2.053-3.536-3.278-3.819-1.568-5.358-2.823-5.358-5.872 0-3.478 2.68-5.501 6.356-5.501 2.224 0 3.763 0.456 5.188 1.197l-0.57 3.421c-1.425-0.942-3.107-1.54-4.646-1.54-1.882 0-2.708 0.912-2.708 2.109 0 1.255 0.627 1.853 3.363 2.993 4.048 1.654 5.53 3.050 5.53 6.1 0 3.848-2.822 5.844-6.613 5.844z" fill="rgb(231, 174, 38)"></path>
<path d="M306.328 105.991h3.791v19.667h-3.791v-19.667z" fill="rgb(231, 174, 38)"></path>
<path d="M324.142 109.268v16.39h-3.791v-16.39h-5.844v-3.277h15.278l0.541 3.277h-6.184z" fill="rgb(231, 174, 38)"></path>
<path d="M343.406 118.133v7.525h-3.791v-7.496l-6.869-11.744 3.934-0.627 4.988 8.893 4.816-8.693h4.048l-7.126 12.142z" fill="rgb(231, 174, 38)"></path>
</svg>
